<?xml version="1.0" standalone="no"?>
<!DOCTYPE svg PUBLIC "-//W3C//DTD SVG 20010904//EN"
 "http://www.w3.org/TR/2001/REC-SVG-20010904/DTD/svg10.dtd">
<svg version="1.0" xmlns="http://www.w3.org/2000/svg"
 width="880.000000pt" height="880.000000pt" viewBox="0 0 880.000000 880.000000"
 preserveAspectRatio="xMidYMid meet">
<metadata>
Created by potrace 1.11, written by Peter Selinger 2001-2013
</metadata>
<g transform="translate(0.000000,880.000000) scale(0.100000,-0.100000)"
fill="#000000" stroke="none">
<path d="M2737 8374 c-1 -1 -60 -4 -132 -7 -71 -3 -130 -6 -130 -7 0 -1 -25
-3 -55 -4 -31 -2 -78 -6 -105 -10 -28 -3 -70 -8 -95 -11 -25 -3 -61 -8 -80
-11 -19 -2 -53 -7 -75 -10 -22 -3 -49 -7 -60 -9 -11 -1 -27 -5 -35 -8 -8 -3
-28 -8 -45 -10 -75 -12 -306 -77 -380 -107 -60 -26 -151 -61 -160 -63 -25 -6
-238 -114 -318 -163 -50 -30 -93 -54 -98 -54 -4 0 -9 -3 -11 -8 -2 -4 -28 -23
-58 -42 -158 -100 -387 -337 -508 -525 -25 -38 -48 -72 -51 -75 -17 -15 -140
-258 -156 -310 -1 -3 -5 -12 -8 -20 -37 -88 -88 -262 -102 -345 -2 -11 -10
-58 -20 -105 -18 -93 -22 -122 -30 -190 -3 -25 -8 -67 -12 -95 -9 -69 -10
-609 -1 -720 5 -49 12 -124 17 -165 6 -41 13 -97 16 -125 3 -27 14 -100 25
-161 11 -61 22 -129 25 -150 4 -21 10 -55 15 -74 5 -19 11 -46 14 -60 2 -14
16 -77 31 -140 14 -63 28 -125 30 -136 1 -12 8 -31 14 -43 7 -11 9 -21 7 -21
-3 0 1 -18 9 -40 8 -22 12 -40 10 -40 -3 0 1 -17 9 -37 13 -36 55 -181 61
-213 2 -8 11 -42 21 -75 10 -33 17 -64 16 -69 -2 -4 3 -14 9 -22 6 -8 8 -14 4
-14 -4 0 -2 -7 5 -15 7 -8 10 -15 6 -15 -3 0 -1 -12 5 -27 6 -16 13 -37 15
-48 3 -18 26 -95 53 -182 5 -18 7 -33 4 -33 -3 0 -1 -6 5 -13 6 -6 11 -15 11
-19 1 -5 1 -9 2 -10 0 -2 2 -13 5 -25 4 -22 49 -162 64 -198 4 -11 29 -81 56
-155 26 -74 52 -146 57 -160 6 -14 11 -27 12 -30 1 -3 5 -13 8 -22 4 -10 10
-26 14 -35 3 -10 5 -21 5 -25 -1 -5 3 -8 8 -8 6 0 10 -7 10 -15 0 -8 18 -56
41 -107 22 -51 42 -97 43 -103 2 -5 15 -36 30 -68 14 -32 26 -60 26 -63 0 -21
216 -433 302 -574 51 -85 54 -89 115 -182 29 -44 53 -82 53 -84 0 -3 11 -17
25 -32 14 -15 25 -32 25 -39 0 -7 4 -13 8 -13 4 0 15 -12 24 -27 9 -16 25 -38
35 -50 10 -12 26 -32 37 -45 19 -24 102 -121 146 -172 63 -72 238 -241 321
-309 100 -82 249 -183 363 -246 79 -44 213 -111 223 -111 4 0 20 -6 34 -14 61
-32 335 -118 419 -132 14 -3 48 -9 75 -14 136 -27 237 -34 510 -35 213 0 336
6 415 19 14 3 41 7 60 10 19 2 58 8 85 12 28 5 53 7 58 6 4 -1 7 1 7 5 0 5 12
8 28 9 15 0 38 3 52 6 76 18 127 30 140 33 67 14 269 69 283 77 10 5 28 11 39
13 17 4 141 42 196 60 7 3 14 3 16 2 1 -1 9 3 17 9 8 6 46 22 84 34 39 13 97
35 130 50 33 15 63 28 68 28 4 1 30 13 57 27 27 14 52 24 54 23 2 -2 12 4 22
12 11 9 44 29 74 45 30 15 57 32 60 35 3 4 15 10 28 14 12 4 22 12 22 17 0 5
4 9 9 9 12 0 145 82 149 92 2 5 8 8 12 8 5 0 35 18 67 40 32 22 66 46 77 53
64 43 341 256 392 302 6 5 31 26 54 45 24 19 51 42 60 50 9 8 45 40 81 70 35
30 69 59 76 65 6 5 31 27 55 47 24 20 69 62 101 92 32 31 60 56 62 56 9 0 766
761 825 829 36 41 74 84 85 96 11 13 38 44 60 71 22 27 56 67 75 89 20 22 69
81 110 130 41 50 77 92 81 95 3 3 18 23 34 45 17 22 32 42 36 45 5 5 123 161
147 196 118 171 162 236 162 241 0 3 10 19 23 36 25 36 43 65 53 87 4 8 18 30
31 48 13 17 21 32 18 32 -3 0 6 17 20 37 14 21 25 43 25 49 0 7 3 14 8 16 21
9 212 433 212 471 0 7 3 17 7 21 4 3 8 12 9 19 1 7 8 37 14 67 71 339 -26 763
-258 1125 -46 72 -145 204 -192 254 -8 9 -28 32 -44 51 -78 95 -232 255 -384
400 -34 32 -244 212 -267 228 -5 4 -24 18 -41 32 -16 14 -43 34 -58 45 -16 11
-40 29 -55 41 -47 38 -311 214 -320 214 -5 0 -11 4 -13 8 -1 5 -34 27 -73 50
-38 23 -74 45 -80 49 -20 17 -186 113 -320 185 -49 27 -97 54 -105 59 -28 17
-425 214 -505 251 -44 20 -136 59 -205 88 -69 28 -138 57 -155 65 -128 56
-564 212 -745 265 -41 12 -93 28 -115 36 -22 7 -76 23 -120 35 -44 11 -96 25
-115 30 -19 5 -45 12 -57 14 -12 3 -86 21 -165 39 -79 19 -163 37 -188 41 -24
4 -48 9 -53 12 -4 3 -23 7 -40 10 -18 2 -43 6 -57 9 -14 3 -38 7 -55 10 -16 2
-50 9 -75 14 -25 5 -63 12 -85 15 -22 3 -56 9 -75 11 -84 13 -97 15 -127 18
-18 2 -48 6 -65 10 -18 3 -60 8 -93 11 -33 3 -78 8 -101 10 -123 13 -618 28
-627 19z m1648 -2008 c28 -4 64 -9 80 -12 17 -3 42 -7 57 -9 33 -5 156 -34
178 -42 8 -3 24 -8 35 -10 76 -14 292 -107 432 -184 105 -58 293 -190 301
-211 2 -4 8 -8 14 -8 12 0 258 -246 258 -258 0 -4 -48 -57 -106 -117 -340
-352 -403 -415 -411 -415 -5 0 -16 12 -25 28 -17 29 -40 55 -118 137 -97 103
-243 210 -347 256 -18 7 -33 17 -33 21 0 5 -11 8 -25 8 -14 0 -25 4 -25 8 0 7
-74 35 -90 34 -3 0 -9 3 -15 8 -9 7 -126 36 -235 57 -47 9 -291 9 -348 -1 -18
-3 -52 -8 -75 -11 -23 -3 -53 -10 -67 -15 -14 -5 -45 -15 -70 -21 -56 -16 -50
-14 -85 -28 -64 -25 -277 -142 -301 -165 -6 -6 -22 -18 -34 -26 -224 -148
-440 -483 -496 -767 -2 -13 -7 -35 -10 -50 -9 -37 -14 -375 -6 -388 4 -5 7
-22 8 -36 3 -39 44 -188 66 -239 35 -81 83 -175 91 -178 4 -2 7 -8 7 -14 0
-12 61 -102 72 -106 4 -2 8 -8 8 -13 0 -31 210 -234 315 -304 112 -76 259
-146 355 -170 3 -1 12 -4 20 -7 14 -6 93 -26 135 -34 52 -10 105 -17 160 -19
33 -2 62 -4 65 -5 3 -1 9 -2 14 -1 4 1 45 3 90 5 44 2 97 7 116 10 19 3 47 8
61 10 38 6 173 45 217 62 108 43 247 123 299 173 12 12 25 21 28 21 3 0 16 10
29 23 12 12 45 43 73 69 48 44 144 153 176 199 l16 22 38 -40 c21 -22 90 -95
153 -162 63 -68 135 -144 160 -170 25 -27 74 -78 108 -115 l64 -68 -23 -26
c-82 -94 -258 -259 -339 -319 -115 -84 -240 -165 -240 -155 0 4 -4 2 -8 -4 -4
-6 -45 -30 -92 -54 -47 -23 -97 -49 -112 -57 -16 -8 -28 -11 -28 -6 0 4 -4 3
-8 -3 -5 -9 -137 -58 -187 -70 -127 -32 -178 -43 -218 -49 -27 -3 -59 -8 -70
-11 -57 -11 -185 -18 -312 -17 -131 0 -172 3 -285 18 -25 3 -58 8 -75 10 -94
12 -335 78 -387 106 -10 5 -22 9 -28 9 -10 0 -144 59 -195 86 -85 45 -142 78
-156 90 -9 8 -18 12 -21 9 -3 -3 -13 4 -23 15 -10 11 -24 20 -31 20 -7 0 -14
3 -16 8 -1 4 -30 27 -64 52 -163 120 -324 286 -434 445 -19 27 -41 56 -47 63
-7 7 -13 19 -13 27 0 7 -4 15 -9 17 -18 7 -179 322 -187 366 -1 8 -6 21 -10
30 -4 9 -8 20 -9 25 -2 4 -3 8 -5 10 -2 2 -3 8 -30 112 -20 80 -22 91 -35 175
-4 25 -9 54 -12 65 -3 16 -13 198 -14 250 -1 69 14 262 25 321 2 11 7 39 11
64 16 96 66 273 105 370 30 76 103 224 113 228 4 2 7 7 7 12 0 11 63 114 73
118 4 2 7 8 7 14 0 13 110 158 164 217 97 105 199 199 306 281 53 42 244 160
258 160 6 0 12 5 12 10 0 6 9 10 20 10 11 0 20 5 20 10 0 6 4 10 9 10 5 0 40
14 78 32 37 17 73 32 78 34 6 1 54 18 108 38 53 20 97 34 97 31 0 -2 25 5 55
15 30 10 55 17 55 15 0 -2 14 0 32 5 17 5 47 12 67 15 20 3 47 7 60 10 13 2
56 7 95 11 39 3 72 8 74 9 6 5 365 -3 417 -9z"/>
</g>
</svg>
