---
# Only the main Sass file needs front matter (the dashes are enough)
---
<svg id="Layer_1" xmlns="http://www.w3.org/2000/svg" viewBox="0 0 237.1 174.3">
  <style>
    .st0{fill:#62ADE2;}
  </style>
  <path class="st0" d="M12.5 130.8c-.5 0-.8-.3-.8-.8-.2-1.7-1-2.3-2.3-2.3h-2c-1.6 0-2.7.8-2.7 2.7v7.1c0 1.9 1.1 2.7 2.7 2.7h2c1.9 0 2.5-.6 3.3-1.7.3-.3.7-.3 1.1 0l2 1.4c.4.3.4.5.1.9-1.5 1.8-2.7 3.5-6.5 3.5h-2c-4.5 0-7.3-3.4-7.3-7.7v-5.7c0-4.4 2.8-7.4 7.3-7.4h2c3.8 0 6.5 2.5 6.9 6.3 0 .6-.2.9-.8.9h-3v.1zm16.6-7.1c4.5 0 7.2 3 7.2 7.4v6.1c0 4.3-2.7 7.3-7.2 7.3H27c-4.5 0-7.2-3-7.2-7.3v-6.1c0-4.4 2.7-7.4 7.2-7.4h2.1zm2.6 14v-7.2c0-2-1.1-2.7-2.7-2.7h-2c-1.6 0-2.7.8-2.7 2.7v7.2c0 1.9 1.1 2.7 2.7 2.7h2.1c1.6 0 2.6-.8 2.6-2.7zm19.2-14c4.6 0 6.1 2.9 6.1 7.2v12.8c0 .4-.2.6-.6.6h-3.3c-.4 0-.6-.2-.6-.6v-13.3c0-1.9-.9-2.7-2.7-2.7h-.5c-2.1 0-3.6 1-4.1 1.8v14.1c0 .4-.2.6-.6.6h-3.3c-.4 0-.6-.2-.6-.6v-19.3c0-.4.2-.6.6-.6h3.3c.4 0 .6.2.6.6v2c.9-1.3 2.5-2.7 5.5-2.7l.2.1zm20.1 4.2h-2.9v10.2c0 1.6.7 2.1 2.7 2.2.5 0 .8.4.8.9l-.1 2.5c0 .5-.4.8-1 .8-5.5 0-6.9-2-6.9-6.3V128h-2c-.4 0-.6-.2-.6-.6v-2.8c0-.4.2-.7.6-.7h2v-2.6c0-.4.2-.6.6-.6h3.4c.4 0 .6.2.6.6v2.6H71c.5 0 .7.2.7.6v2.9c-.1.3-.4.5-.7.5zm17-.2c-.2.4-.6.5-1 .4-.6-.2-1.4-.3-2.1-.3h-.5c-2.1 0-3.6 1-4.1 1.8v14.1c0 .4-.2.6-.6.6h-3.3c-.4 0-.6-.2-.6-.6v-19.3c0-.4.2-.6.6-.6h3.3c.4 0 .6.2.6.6v2c1.1-1.8 3.2-2.7 5.7-2.7 1.2 0 2.2.2 3 .6.4.2.5.6.3 1.1l-1.3 2.3zm5.2-11.5c0-.4.2-.6.6-.6h3.3c.4 0 .6.2.6.6v3.2c0 .4-.2.6-.6.6h-3.3c-.4 0-.6-.2-.6-.6v-3.2zm0 8.2c0-.4.2-.6.6-.6h3.3c.4 0 .6.2.6.6v19.3c0 .4-.2.6-.6.6h-3.3c-.4 0-.6-.2-.6-.6v-19.3zm19.5-.7c4.5 0 7.2 3 7.2 7.4v6.1c0 4.3-2.7 7.3-7.2 7.3h-1c-2.1 0-3.4-.9-4.1-2.2v1.4c0 .4-.3.6-.6.6h-3.4c-.4 0-.6-.2-.6-.6v-27.5c0-.4.2-.6.6-.6h3.4c.3 0 .6.2.6.6v9.5c.7-1.2 2-2.1 4.1-2.1l1 .1zm2.7 14v-7.2c0-2-1.1-2.7-2.7-2.7h-2.4c-1.6 0-2.7.8-2.7 2.7v7.2c0 1.9 1.1 2.7 2.7 2.7h2.4c1.6 0 2.7-.8 2.7-2.7zm14.9 6.8c-4.6 0-6.1-2.9-6.1-7.2v-12.8c0-.4.2-.6.6-.6h3.3c.4 0 .6.2.6.6v13.3c0 1.9 1 2.7 2.7 2.7h.5c2.1 0 3.6-1 4.1-1.8v-14.1c0-.4.2-.6.6-.6h3.3c.4 0 .6.2.6.6v19.3c0 .4-.2.6-.6.6h-3.3c-.4 0-.6-.2-.6-.6v-2c-.9 1.3-2.5 2.7-5.5 2.7l-.2-.1zm24.3-16.6h-2.9v10.2c0 1.6.7 2.1 2.7 2.2.5 0 .8.4.8.9l-.1 2.5c0 .5-.4.8-1 .8-5.5 0-6.9-2-6.9-6.3V128h-2c-.4 0-.6-.2-.6-.6v-2.8c0-.4.2-.7.6-.7h2v-2.6c0-.4.2-.6.6-.6h3.4c.4 0 .6.2.6.6v2.6h2.9c.5 0 .7.2.7.6v2.9c-.1.3-.5.5-.8.5zm13.5-4.2c3.9 0 6.9 2.8 6.9 7.5v3.5c0 .8-.4 1.2-1.2 1.2h-10.4v1.8c0 1.9 1.1 2.7 2.7 2.7h2c2.3 0 2.8-.4 3.7-1.4.2-.3.5-.3.9 0l1.7 1.1c.4.3.5.6.2.9-1.5 1.8-2.8 3.5-6.5 3.5h-2c-4.5 0-7.3-3.4-7.3-7.7v-5.7c0-4.4 2.8-7.5 7.3-7.5l2 .1zm2.4 8.6v-1.8c0-2-.9-2.7-2.4-2.7h-2c-1.6 0-2.7.8-2.7 2.8v1.8l7.1-.1zm7.8 7.2c0-.4.2-.6.6-.6h4.2c.4 0 .6.2.6.6v4.2c0 .4-.2.6-.6.6h-4.2c-.4 0-.6-.2-.6-.6v-4.2zm31.5-15.8c4.6 0 6.1 2.9 6.1 7.2v12.8c0 .4-.2.6-.6.6H212c-.4 0-.6-.2-.6-.6v-13.3c0-1.9-.9-2.7-2.7-2.7h-.5c-2.1 0-3.5 1-4.1 1.8v14.1c0 .4-.2.6-.6.6h-3.3c-.4 0-.6-.2-.6-.6v-13.3c0-1.9-.9-2.7-2.7-2.7h-.5c-2.1 0-3.6 1-4.1 1.8v14.1c0 .4-.2.6-.6.6h-3.3c-.4 0-.6-.2-.6-.6v-19.3c0-.4.2-.6.6-.6h3.3c.4 0 .6.2.6.6v2c.9-1.3 2.5-2.7 5.5-2.7h.3c3 0 4.7 1.2 5.5 3.3l.6-.6c.9-1.3 2.5-2.7 5.5-2.7l.1.2zm26.7-8.1c.4 0 .6.2.6.6v27.5c0 .4-.2.6-.6.6h-3.4c-.3 0-.6-.2-.6-.6v-1.4c-.8 1.3-2 2.2-4.1 2.2h-1.1c-4.5 0-7.2-3-7.2-7.3v-6.1c0-4.4 2.7-7.4 7.2-7.4h1.1c2.1 0 3.3.9 4.1 2.1v-9.5c0-.4.2-.6.6-.6l3.4-.1zm-6.6 24.8c1.6 0 2.7-.9 2.7-2.7v-7.2c0-2-1.1-2.7-2.7-2.7h-2.5c-1.6 0-2.7.8-2.7 2.7v7.2c0 1.9 1.1 2.7 2.7 2.7h2.5z"/>
  <path class="st0" d="M44.7 154.9h4.8v1.7H48V168h5.1c.1 0 .2 0 .3-.1.1 0 .2-.1.3-.2.1-.1.2-.2.2-.3.1-.1.1-.2.1-.3v-1.9h1.9v4.4H44.7v-1.7h1.4v-11.4h-1.4v-1.6zm14 10c0 .3 0 .5.1.8s.1.5.2.7c.2.7.6 1.1 1.2 1.5s1.1.5 1.8.5c.5 0 1-.1 1.5-.2s1-.4 1.6-.7l.7 1.2c-.7.5-1.3.8-2 1-.7.2-1.4.3-2.1.3-.7 0-1.3-.1-1.9-.3-.6-.2-1.1-.6-1.5-1s-.7-1-1-1.7-.4-1.5-.4-2.3c0-.7.1-1.4.3-2s.5-1.2.9-1.7.9-.9 1.5-1.1c.6-.3 1.3-.4 2.1-.4s1.4.1 1.9.3c.5.2.9.5 1.2.9s.6.8.7 1.3c.2.5.3 1 .3 1.5 0 .2.1.5.1.8v.7h-7.2v-.1zm2.8-4c-.4 0-.8.1-1.1.2-.3.1-.6.3-.8.5s-.4.5-.5.8-.2.7-.3 1.1H64c0-.4-.1-.7-.2-1s-.2-.6-.4-.8-.4-.4-.8-.5c-.3-.3-.6-.3-1.1-.3zm12.9 7.9c-.4.4-.8.7-1.3.9s-1 .3-1.6.3c-.5 0-.9-.1-1.4-.2-.4-.2-.8-.4-1.1-.6-.3-.3-.5-.6-.7-.9-.2-.4-.2-.7-.2-1.1 0-.4.1-.8.2-1.1s.3-.6.5-.9c.2-.2.5-.4.7-.6.3-.2.6-.3.9-.4.3-.1.6-.2.9-.2s.6-.1.9-.1h1.2c.3 0 .6.1.9.1v-.8c0-.4-.1-.7-.2-.9-.1-.3-.3-.5-.4-.7-.2-.2-.4-.3-.7-.4s-.6-.1-.9-.1-.6 0-.9.1-.5.1-.8.2c-.2.1-.5.1-.7.2s-.4.2-.5.3l-.6-1.3c.2-.2.5-.3.8-.4l.9-.3s.6-.2 1-.2c.3-.1.7-.1 1-.1.6 0 1.1.1 1.6.2s.9.4 1.2.6.6.7.8 1.1.3 1 .3 1.6v5.1h1.1v1.7h-2.9v-1.1zm-2.5-.3c.2 0 .5 0 .7-.1s.5-.1.7-.2c.2-.1.4-.2.6-.4s.3-.3.5-.4v-2.3h-2.1c-.4 0-.7 0-1 .1s-.5.2-.8.3c-.2.1-.4.3-.5.6-.1.2-.2.5-.2.8s0 .5.1.7.2.4.4.5l.6.3c.4.1.7.1 1 .1zm14.7-6.7h-1.9v-.6c-.2 0-.4 0-.7.1s-.4.2-.6.4-.4.4-.5.6-.3.6-.3.9v4.9h1.7v1.7h-5v-1.7h1.4v-6.8h-1.4v-1.7h3.2v1.4c.1-.2.2-.4.4-.6l.5-.5.6-.3s.5-.1.7-.1h1.9v2.3zm8.8 6.3h1.4v-4.6c0-.8-.2-1.4-.6-1.8-.4-.4-1-.6-1.7-.6-.4 0-.8.1-1.3.3s-.8.5-1.2.8v5.9h1.4v1.7h-4.7v-1.7h1.4v-6.8h-1.4v-1.7H92v1.2c.2-.2.4-.4.7-.5.2-.2.5-.3.8-.4.3-.1.5-.2.8-.3s.6-.1.9-.1c.5 0 1 .1 1.5.2.4.1.8.4 1.1.7.3.3.5.7.7 1.2s.2 1 .2 1.7v4.8h1.4v1.7h-4.7v-1.7zm10.6-13.6h3.3v5.9c.4-.3.9-.6 1.4-.8s1-.3 1.6-.3c.7 0 1.3.1 1.8.4s1 .6 1.4 1 .7 1 .9 1.6c.2.6.3 1.3.3 2.1s-.1 1.6-.4 2.2c-.2.7-.6 1.2-1 1.7s-1 .8-1.6 1.1-1.3.4-2 .4c-.5 0-1-.1-1.4-.2s-.8-.3-1.1-.6v.6h-1.8v-13.5H106v-1.6zm5.8 6.5c-.5 0-.9.1-1.4.3-.4.2-.8.5-1.1.8v5.4c.2.2.5.4.9.6.4.2.9.2 1.5.2.4 0 .8-.1 1.2-.2.4-.2.7-.4 1-.7s.5-.7.7-1.2.3-1 .3-1.6-.1-1.1-.2-1.5c-.2-.4-.4-.8-.7-1.1s-.6-.5-1-.7c-.4-.2-.8-.3-1.2-.3zm6.2-1.4h3.8v1.7h-1.2l2.4 6.5 2.5-6.5h-1.2v-1.7h3.8v1.7h-1l-4.5 11.4h1.4v1.7h-4.1v-1.7h1.2l1.1-2.8-3.4-8.6h-.8v-1.7zm23.9 9.2c-.3.4-.7.6-1.2.8s-.9.3-1.5.3c-.7 0-1.3-.1-1.9-.4s-1.1-.6-1.5-1c-.4-.5-.8-1-1-1.7s-.4-1.4-.4-2.3c0-.8.1-1.5.4-2.1.2-.6.6-1.2 1-1.6.4-.5.9-.8 1.6-1.1.6-.3 1.3-.4 2-.4.5 0 1 .1 1.4.2.4.1.8.3 1.2.6v-.5h1.8v9.7c0 1.6-.4 2.8-1.1 3.6-.8.8-1.9 1.2-3.5 1.2-.4 0-.7 0-1.1-.1s-.8-.1-1.1-.2-.7-.3-1.1-.4c-.4-.2-.7-.4-1-.6l1-1.5c.2.2.4.3.7.5s.5.3.8.4c.3.1.6.2.9.2s.6.1.9.1c.5 0 .9-.1 1.3-.2s.7-.3.9-.5.4-.6.5-1.1.2-1 .2-1.7l-.2-.2zm-2.4-.4c.3 0 .6 0 .8-.1s.5-.1.7-.2c.2-.1.4-.2.5-.3l.4-.4v-5.5c-.3-.3-.7-.5-1.1-.6-.4-.1-.9-.2-1.3-.2s-.8.1-1.2.2c-.4.2-.7.4-1 .7s-.5.7-.7 1.1c-.2.4-.2 1-.2 1.5 0 .6.1 1.2.2 1.6.2.5.4.9.7 1.2s.6.6 1 .7c.3.2.8.3 1.2.3zm6.7-8.8h3.3v8.4h1.5v1.7h-4.8V168h1.4v-6.8h-1.5l.1-1.6zm1.1-3.6c0-.2 0-.3.1-.5s.2-.3.3-.4c.1-.1.2-.2.4-.3s.3-.1.5-.1.3 0 .5.1.3.2.4.3.2.2.3.4.1.3.1.5 0 .3-.1.5-.2.3-.3.4-.2.2-.4.3-.3.1-.5.1-.3 0-.5-.1-.3-.2-.4-.3c-.1-.1-.2-.3-.3-.4s-.1-.3-.1-.5zm4.6 3.6h3.5v1.7h-.9l2.5 7 2.4-7h-.6v-1.7h3.2v1.7h-.9l-3.3 8.6H156l-3.3-8.6h-.8v-1.7zm11.4 0h3.3v8.4h1.5v1.7h-4.8V168h1.4v-6.8h-1.5l.1-1.6zm1.2-3.6c0-.2 0-.3.1-.5s.2-.3.3-.4c.1-.1.2-.2.4-.3s.3-.1.5-.1.3 0 .5.1.3.2.4.3c.1.1.2.2.3.4s.1.3.1.5 0 .3-.1.5-.2.3-.3.4-.2.2-.4.3-.3.1-.5.1-.3 0-.5-.1-.3-.2-.4-.3c-.1-.1-.2-.3-.3-.4s-.1-.3-.1-.5zm12 12h1.4v-4.6c0-.8-.2-1.4-.6-1.8-.4-.4-1-.6-1.7-.6-.4 0-.8.1-1.3.3-.4.2-.8.5-1.2.8v5.9h1.4v1.7h-4.7V168h1.4v-6.8h-1.4v-1.7h3.2v1.2c.2-.2.4-.4.7-.5.2-.2.5-.3.8-.4.3-.1.5-.2.8-.3s.6-.1.9-.1c.5 0 1 .1 1.5.2s.8.4 1.1.7.5.7.7 1.2.2 1 .2 1.7v4.8h1.4v1.7h-4.7l.1-1.7zm14.1.8c-.3.4-.7.6-1.2.8s-.9.3-1.5.3c-.7 0-1.3-.1-1.9-.4-.6-.2-1.1-.6-1.5-1-.4-.5-.8-1-1-1.7s-.4-1.4-.4-2.3c0-.8.1-1.5.4-2.1.2-.6.6-1.2 1-1.6.4-.5.9-.8 1.6-1.1.6-.3 1.3-.4 2-.4.5 0 1 .1 1.4.2.4.1.8.3 1.2.6v-.5h1.8v9.7c0 1.6-.4 2.8-1.1 3.6-.8.8-1.9 1.2-3.5 1.2-.4 0-.7 0-1.1-.1s-.8-.1-1.1-.2c-.4-.1-.7-.3-1.1-.4s-.7-.4-1-.6l1-1.5c.2.2.4.3.7.5.3.1.5.3.8.4s.6.2.9.2.6.1.9.1c.5 0 .9-.1 1.3-.2s.7-.3.9-.5c.2-.3.4-.6.5-1.1s.2-1 .2-1.7l-.2-.2zm-2.4-.4c.3 0 .6 0 .8-.1s.5-.1.7-.2c.2-.1.4-.2.5-.3.2-.1.3-.3.4-.4v-5.5c-.3-.3-.7-.5-1.1-.6-.4-.1-.9-.2-1.3-.2s-.8.1-1.2.2c-.4.2-.7.4-1 .7s-.5.7-.7 1.1c-.2.4-.2 1-.2 1.5 0 .6.1 1.2.2 1.6s.4.9.7 1.2.6.6 1 .7c.3.2.7.3 1.2.3z"/>
  <path class="st0" d="M168.6 30.5c-4-5-8.8-9.3-14.2-12.8-6.2-4.1-12.9-7.6-19.8-10.3-7.1-2.9-14.5-5-22.1-6.3-7-1.3-14.2-1.5-21.2-.6-6.2.7-12 3-17 6.6-4.9 3.9-8.3 9.4-9.5 15.5-1.5 6.8-1.3 15.3 1.3 25.9 1.2 4.6 2.5 9 3.7 13.2 1.3 4 2.8 7.9 4.5 11.7 1.6 3.5 3.4 6.8 5.5 9.9 1.9 2.9 4.1 5.5 6.6 7.8 2.3 2.2 5 4 7.9 5.4 3 1.4 6.1 2.3 9.4 2.7 3.7.4 7.4.3 11.1-.3 4.4-.7 8.7-2 12.9-3.6 2.1-.8 4.1-1.9 6-3.1 2.5-1.5 4.8-3.2 7.1-5 2.5-2.1 5.1-4.2 7.6-6.6 2.5-2.4 5-4.9 7.5-7.4s4.7-5.2 6.9-7.8c2.1-2.5 4-5.1 5.7-7.8 1.5-2.3 2.8-4.8 3.9-7.3.9-1.9 1.4-4 1.5-6.2-.2-5-2.1-9.8-5.3-13.6zM127 73c-3.5 1.8-7.3 2.6-11.5 2.6-3.6 0-7-.7-10.2-2s-5.9-3.1-8.3-5.4c-2.4-2.3-4.2-5-5.6-8-1.4-3-2-6.4-2-9.9s.7-6.8 2-9.9c1.4-3.1 3.2-5.8 5.6-8.1s5.1-4.1 8.3-5.4 6.6-2 10.2-2c4.2 0 8 .9 11.5 2.6 3.5 1.7 6.4 4 8.7 6.8l-6.5 6.7c-1.5-2.2-3.4-3.9-5.8-5.2-2.4-1.3-5-2-7.8-2-2.3 0-4.4.4-6.4 1.3s-3.8 2.1-5.3 3.5c-1.5 1.5-2.7 3.2-3.6 5.2S99 47.9 99 50.1s.4 4.3 1.3 6.3 2.1 3.7 3.6 5.2 3.3 2.7 5.3 3.5 4.2 1.3 6.4 1.3c3 0 5.7-.7 8-2 2.3-1.4 4.2-3.2 5.8-5.4l6.5 6.9c-2.4 3-5.4 5.3-8.9 7.1z"/>
</svg>
