<svg xmlns="http://www.w3.org/2000/svg" viewBox="0 0 110 99.5">
  <style>
    .st0{fill:#62ADE2;}
  </style>
  <path class="st0" d="M104.7 30.6c-4-5-8.8-9.3-14.2-12.8-6.2-4.1-12.9-7.6-19.8-10.3-7.1-2.9-14.5-5-22.1-6.3-7-1.3-14.2-1.5-21.2-.6-6.2.7-12 3-17 6.6-4.9 3.9-8.3 9.4-9.5 15.5C-.6 29.5-.4 38 2.2 48.6c1.2 4.6 2.5 9 3.7 13.2 1.3 4 2.8 7.9 4.5 11.7 1.6 3.5 3.4 6.8 5.5 9.9 1.9 2.9 4.1 5.5 6.6 7.8 2.3 2.2 5 4 7.9 5.4 3 1.4 6.1 2.3 9.4 2.7 3.7.4 7.4.3 11.1-.3 4.4-.7 8.7-2 12.9-3.6 2.1-.8 4.1-1.9 6-3.1 2.5-1.5 4.8-3.2 7.1-5 2.5-2.1 5.1-4.2 7.6-6.6s5-4.9 7.5-7.4 4.7-5.2 6.9-7.8c2.1-2.5 4-5.1 5.7-7.8 1.5-2.3 2.8-4.8 3.9-7.3.9-1.9 1.4-4 1.5-6.2-.2-5-2.1-9.8-5.3-13.6zM63.1 73.1c-3.5 1.8-7.3 2.6-11.5 2.6-3.6 0-7-.7-10.2-2s-5.9-3.1-8.3-5.4-4.2-5-5.6-8-2-6.4-2-9.9.7-6.8 2-9.9c1.4-3.1 3.2-5.8 5.6-8.1s5.1-4.1 8.3-5.4 6.6-2 10.2-2c4.2 0 8 .9 11.5 2.6 3.5 1.7 6.4 4 8.7 6.8l-6.5 6.7c-1.5-2.2-3.4-3.9-5.8-5.2s-5-2-7.8-2c-2.3 0-4.4.4-6.4 1.3s-3.8 2.1-5.3 3.5c-1.5 1.5-2.7 3.2-3.6 5.2s-1.3 4.1-1.3 6.3.4 4.3 1.3 6.3 2.1 3.7 3.6 5.2 3.3 2.7 5.3 3.5 4.2 1.3 6.4 1.3c3 0 5.7-.7 8-2 2.3-1.4 4.2-3.2 5.8-5.4L72 66c-2.4 3-5.4 5.3-8.9 7.1z"/>
</svg>
